:SAMPLES-PER-SECOND 30
:FULLY-SPECIFIED
:DEGREES
463
root  -63.973 36.028 -31.0074 38.5217 4.62785 -2.04207
RightUpLeg  -75.9278 -17.0328 25.6727
RightLeg  48.6738 -6.08832 -7.71831
RightFoot  -14.3679 -0.303358 -7.79814
RightToes  0.00048216 0.542163 -0.142577
Spine  73.1743 -3.9924 5.76652
Spine1  7.47355 1.83973 -7.72811
HEad  -44.9221 -2.31219 -3.00356
LeftShoulder1  3.21496 -24.012 -3.62035
LeftArm  -107.843 -69.43 49.2209
LeftForeArm  2.23177 -13.5751 0.890614
LeftHand  -0.25398 0.0180481 5.50724
RightShoulder  1.32999 8.96352 2.57936
RightArm  -82.1774 59.5105 -27.2498
RightForeArm  -33.6315 12.881 3.20819
RightHand  -0.881226 8.75752 -7.69255
LeftUpLeg  -84.1265 25.102 -27.8838
LeftLeg  45.052 1.9746 2.53225
LeftFoot  -7.20892 -0.294344 9.37257
LeftToes  1.06244e-005 4.65854e-005 -8.18505e-006
464
root  -64.0053 36.0384 -30.9341 38.7083 4.54083 -2.0502
RightUpLeg  -75.9001 -16.8091 25.5958
RightLeg  48.6455 -6.16849 -7.80576
RightFoot  -14.4446 -0.30942 -7.74392
RightToes  0.00048216 0.542163 -0.142577
Spine  73.1201 -3.93773 5.57859
Spine1  7.62541 1.78182 -7.76168
HEad  -44.6386 -2.68372 -2.73505
LeftShoulder1  3.17754 -23.7344 -3.60341
LeftArm  -108.867 -69.5206 48.9229
LeftForeArm  3.00894 -14.0524 0.914126
LeftHand  -0.25398 0.0180481 5.50724
RightShoulder  1.34525 9.17979 2.50852
RightArm  -81.4325 59.276 -27.101
RightForeArm  -34.4404 13.6585 3.61836
RightHand  -1.05258 8.9804 -8.95735
LeftUpLeg  -84.2782 25.2236 -27.9947
LeftLeg  45.0581 1.9066 2.4602
LeftFoot  -7.24174 -0.287237 9.24326
LeftToes  1.06244e-005 4.65854e-005 -8.18505e-006
465
root  -64.0298 36.0595 -30.8697 38.8358 4.49846 -2.03067
RightUpLeg  -75.8367 -16.6785 25.5301
RightLeg  48.5675 -6.26457 -7.89847
RightFoot  -14.4414 -0.312204 -7.74117
RightToes  0.00048216 0.542163 -0.142577
Spine  73.1171 -3.98033 5.55227
Spine1  7.761 1.76018 -7.8143
HEad  -44.6958 -2.85097 -2.68202
LeftShoulder1  3.14993 -24.0347 -3.34491
LeftArm  -108.346 -69.1756 47.8196
LeftForeArm  3.13888 -14.3306 0.935147
LeftHand  -0.25398 0.0180481 5.50724
RightShoulder  1.35054 9.08603 2.64751
RightArm  -82.0491 59.586 -27.5421
RightForeArm  -35.1852 13.9975 3.74885
RightHand  -1.2476 9.21063 -10.3705
LeftUpLeg  -84.3077 25.2981 -28.0723
LeftLeg  44.9766 1.87385 2.41902
LeftFoot  -7.23093 -0.28759 9.21032
LeftToes  1.06244e-005 4.65854e-005 -8.18505e-006
466
root  -64.0461 36.0813 -30.817 38.8384 4.51183 -1.93326
RightUpLeg  -75.7837 -16.7686 25.4803
RightLeg  48.5745 -6.28299 -7.9223
RightFoot  -14.415 -0.314369 -7.74232
RightToes  0.00048216 0.542163 -0.142577
Spine  73.1949 -4.0913 5.70168
Spine1  7.82031 1.76698 -7.81273
HEad  -44.9968 -2.78017 -2.75838
LeftShoulder1  3.22678 -24.7408 -3.32102
LeftArm  -106.969 -68.648 46.805
LeftForeArm  2.85361 -14.497 0.81711
LeftHand  -0.25398 0.0180481 5.50724
RightShoulder  1.33161 8.60226 2.95562
RightArm  -83.5305 60.3045 -28.6149
RightForeArm  -35.359 13.7076 3.62428
RightHand  -1.37597 9.3472 -11.2799
LeftUpLeg  -84.1336 25.269 -28.0147
LeftLeg  44.914 1.91521 2.45818
LeftFoot  -7.17617 -0.291291 9.18036
LeftToes  1.06244e-005 4.65854e-005 -8.18505e-006
467
root  -64.0663 36.0944 -30.7745 38.8496 4.44193 -1.78865
RightUpLeg  -75.8065 -16.8482 25.386
RightLeg  48.6614 -6.23727 -7.89218
RightFoot  -14.3734 -0.3151 -7.75449
RightToes  0.00048216 0.542163 -0.142577
Spine  73.2555 -4.14399 5.80826
Spine1  7.7947 1.78283 -7.86493
HEad  -45.2022 -2.5273 -2.91889
LeftShoulder1  3.28396 -25.1944 -3.33797
LeftArm  -105.888 -68.3482 47.1439
LeftForeArm  1.60409 -13.9064 0.929084
LeftHand  -0.25398 0.0180481 5.50724
RightShoulder  1.32227 8.32009 3.16302
RightArm  -84.5185 60.7594 -29.6154
RightForeArm  -35.0901 13.0392 3.39661
RightHand  -1.50198 9.56756 -12.09
LeftUpLeg  -83.9667 25.2042 -27.946
LeftLeg  44.8978 2.01344 2.56121
LeftFoot  -7.10557 -0.293465 9.07494
LeftToes  1.06244e-005 4.65854e-005 -8.18505e-006
468
root  -64.0968 36.0984 -30.7484 38.9622 4.26147 -1.73096
RightUpLeg  -75.8869 -16.6925 25.3055
RightLeg  48.7129 -6.23061 -7.89873
RightFoot  -14.2535 -0.311444 -7.81849
RightToes  0.00048216 0.542163 -0.142577
Spine  73.1791 -4.11283 5.8024
Spine1  7.76973 1.81014 -8.07755
HEad  -45.2082 -2.10324 -3.21901
LeftShoulder1  3.12795 -25.0313 -2.79711
LeftArm  -105.546 -68.3178 48.6192
LeftForeArm  -0.186141 -12.2969 1.45053
LeftHand  -0.25398 0.0180481 5.50724
RightShoulder  1.35641 8.53103 3.26255
RightArm  -85.0691 60.8165 -30.0657
RightForeArm  -34.2651 12.3998 3.08068
RightHand  -1.65731 9.77389 -13.1134
LeftUpLeg  -84.0293 25.2001 -27.9383
LeftLeg  44.9069 2.12566 2.68117
LeftFoot  -7.00555 -0.298292 8.97704
LeftToes  1.06244e-005 4.65854e-005 -8.18505e-006
469
root  -64.128 36.105 -30.7481 39.0104 4.09256 -1.82394
RightUpLeg  -75.8645 -16.4529 25.3468
RightLeg  48.6561 -6.28201 -7.94452
RightFoot  -14.0448 -0.300263 -7.97814
RightToes  0.00048216 0.542163 -0.142577
Spine  73.0395 -4.07243 5.85614
Spine1  7.74344 1.88242 -8.28349
HEad  -45.0569 -1.70293 -3.69654
LeftShoulder1  2.88596 -24.6986 -1.9838
LeftArm  -105.489 -68.2428 50.114
LeftForeArm  -1.01155 -10.2869 1.95275
LeftHand  -0.25398 0.0180481 5.50724
RightShoulder  1.39632 8.83008 3.31982
RightArm  -86.1232 60.9721 -30.3075
RightForeArm  -32.5897 11.7226 2.55998
RightHand  -1.86823 9.88834 -14.6009
LeftUpLeg  -84.1835 25.3122 -27.9011
LeftLeg  44.9186 2.22939 2.79236
LeftFoot  -6.83823 -0.314015 9.01594
LeftToes  1.06244e-005 4.65854e-005 -8.18505e-006
470
root  -64.1497 36.1377 -30.7772 38.7788 3.99368 -1.91957
RightUpLeg  -75.569 -16.4481 25.44
RightLeg  48.4387 -6.31064 -7.91861
RightFoot  -13.8026 -0.279438 -8.26127
RightToes  0.00048216 0.542163 -0.142577
Spine  73.0119 -4.06691 6.06572
Spine1  7.60155 2.03281 -8.26837
HEad  -44.6941 -1.58455 -4.34607
LeftShoulder1  2.86173 -24.7984 -1.84379
LeftArm  -105.162 -68.1207 51.1668
LeftForeArm  -0.0656504 -8.52646 2.04579
LeftHand  -0.25398 0.0180481 5.50724
RightShoulder  1.38343 8.84683 3.18335
RightArm  -87.1727 61.4621 -30.7678
RightForeArm  -30.4275 10.4946 1.94502
RightHand  -2.35793 10.4702 -17.5673
LeftUpLeg  -84.0235 25.5166 -27.7984
LeftLeg  44.7865 2.32974 2.8867
LeftFoot  -6.57654 -0.342854 9.17335
LeftToes  1.06244e-005 4.65854e-005 -8.18505e-006
471
root  -64.1652 36.2242 -30.8372 38.2817 3.90462 -1.8121
RightUpLeg  -74.9766 -16.7868 25.3963
RightLeg  47.9352 -6.25736 -7.71979
RightFoot  -13.5149 -0.253881 -8.58562
RightToes  0.00048216 0.542163 -0.142577
Spine  73.089 -4.09684 6.26224
Spine1  7.35439 2.20357 -8.12173
HEad  -44.0146 -1.62993 -5.25578
LeftShoulder1  3.06192 -25.172 -2.4779
LeftArm  -104.648 -68.3761 52.0469
LeftForeArm  2.23476 -7.00172 1.83272
LeftHand  -0.25398 0.0180481 5.50724
RightShoulder  1.33176 8.7961 2.76091
RightArm  -86.9039 62.0734 -31.3792
RightForeArm  -28.9985 8.56042 1.61095
RightHand  -3.32221 11.8704 -22.4933
LeftUpLeg  -83.2865 25.7199 -27.7252
LeftLeg  44.2184 2.42409 2.93301
LeftFoot  -6.1624 -0.384923 9.31201
LeftToes  1.06244e-005 4.65854e-005 -8.18505e-006
472
root  -64.1813 36.3756 -30.9311 37.6487 3.77048 -1.50201
RightUpLeg  -74.1532 -17.3703 25.1944
RightLeg  47.0474 -6.10404 -7.31423
RightFoot  -13.0891 -0.222809 -8.79851
RightToes  0.00048216 0.542163 -0.142577
Spine  73.0652 -4.18941 6.2857
Spine1  7.21358 2.27489 -8.16074
HEad  -43.2359 -1.33817 -6.45352
LeftShoulder1  3.17233 -25.3943 -2.81352
LeftArm  -104.009 -69.0629 52.3192
LeftForeArm  5.16074 -5.53225 1.60697
LeftHand  -0.25398 0.0180481 5.50724
RightShoulder  1.29658 8.88734 2.34741
RightArm  -85.7778 62.8571 -32.0462
RightForeArm  -29.4891 6.55962 1.70808
RightHand  -4.46232 13.3516 -27.6029
LeftUpLeg  -82.0417 25.8972 -27.7278
LeftLeg  43.0691 2.48196 2.8859
LeftFoot  -5.53414 -0.443244 9.37563
LeftToes  1.06244e-005 4.65854e-005 -8.18505e-006
473
root  -64.1972 36.577 -31.0545 36.8908 3.57413 -1.18633
RightUpLeg  -73.0923 -18.08 25.0066
RightLeg  45.8088 -5.83994 -6.72446
RightFoot  -12.4793 -0.173026 -8.93209
RightToes  0.00048216 0.542163 -0.142577
Spine  72.7977 -4.33849 6.19184
Spine1  7.26601 2.19926 -8.46095
HEad  -42.7542 -0.419272 -7.90184
LeftShoulder1  3.11245 -25.6554 -2.46827
LeftArm  -102.447 -69.6674 51.2962
LeftForeArm  7.42044 -4.22686 1.449
LeftHand  -0.25398 0.0180481 5.50724
RightShoulder  1.28468 8.93616 2.19227
RightArm  -85.9693 64.1839 -32.8964
RightForeArm  -31.4598 5.04113 1.87268
RightHand  -5.20811 14.1398 -30.7096
LeftUpLeg  -80.5077 26.1841 -27.7352
LeftLeg  41.509 2.47054 2.7357
LeftFoot  -4.7332 -0.517417 9.43445
LeftToes  1.06244e-005 4.65854e-005 -8.18505e-006
474
root  -64.2123 36.8112 -31.194 35.946 3.30711 -1.0062
RightUpLeg  -71.7014 -18.8372 24.9364
RightLeg  44.2627 -5.4913 -6.02072
RightFoot  -11.7132 -0.108769 -9.23047
RightToes  0.00048216 0.542163 -0.142577
Spine  72.3508 -4.3979 6.10676
Spine1  7.19884 2.08099 -8.65364
HEad  -42.5904 0.923604 -9.76172
LeftShoulder1  3.34235 -26.4276 -3.01001
LeftArm  -99.9473 -70.09 49.7305
LeftForeArm  8.30184 -3.09345 1.07047
LeftHand  -0.25398 0.0180481 5.50724
RightShoulder  1.29839 8.99926 2.25872
RightArm  -87.7229 65.9765 -33.6177
RightForeArm  -33.5001 3.76658 1.77348
RightHand  -5.57301 14.5178 -32.1198
LeftUpLeg  -78.79 26.7235 -27.6816
LeftLeg  39.7375 2.39003 2.5141
LeftFoot  -3.86839 -0.601496 9.54422
LeftToes  1.06244e-005 4.65854e-005 -8.18505e-006
475
root  -64.2281 37.0791 -31.3392 34.8044 3.02469 -0.903671
RightUpLeg  -69.9359 -19.6666 24.9045
RightLeg  42.3842 -5.09348 -5.26439
RightFoot  -10.8168 -0.0278505 -9.76414
RightToes  0.00048216 0.542163 -0.142577
Spine  71.6646 -4.50049 6.1523
Spine1  7.32681 2.0379 -8.96492
HEad  -42.8964 2.47872 -11.9701
LeftShoulder1  3.67592 -26.8595 -4.06333
LeftArm  -98.472 -70.9902 48.8335
LeftForeArm  8.29859 -1.81565 0.621678
LeftHand  -0.25398 0.0180481 5.50724
RightShoulder  1.31423 8.952 2.4425
RightArm  -89.7671 67.9865 -33.7301
RightForeArm  -34.3755 2.48677 1.43727
RightHand  -6.12793 15.4233 -33.6495
LeftUpLeg  -76.7807 27.4585 -27.5505
LeftLeg  37.6975 2.27361 2.26016
LeftFoot  -2.95912 -0.693854 9.6874
LeftToes  1.06244e-005 4.65854e-005 -8.18505e-006
476
root  -64.2412 37.391 -31.4882 33.4629 2.86003 -0.692352
RightUpLeg  -67.8555 -20.7603 24.7519
RightLeg  40.2053 -4.6167 -4.4614
RightFoot  -9.79891 0.0725499 -10.2617
RightToes  0.00048216 0.542163 -0.142577
Spine  70.9073 -5.08603 6.18467
Spine1  7.49894 1.71995 -9.99423
HEad  -43.5052 4.911 -14.2781
LeftShoulder1  3.89366 -26.1252 -5.23442
LeftArm  -96.4886 -72.6679 46.9969
LeftForeArm  8.69701 -0.480721 -0.0222343
LeftHand  -0.25398 0.0180481 5.50724
RightShoulder  1.51278 9.75799 3.41282
RightArm  -89.532 69.8629 -31.869
RightForeArm  -33.1262 1.72907 1.25807
RightHand  -7.05672 17.0747 -35.7358
LeftUpLeg  -74.2329 28.182 -27.335
LeftLeg  35.1873 2.14196 1.98859
LeftFoot  -1.89291 -0.803958 9.83988
LeftToes  1.06244e-005 4.65854e-005 -8.18505e-006
477
root  -64.2463 37.7393 -31.6367 31.8628 2.84175 -0.291611
RightUpLeg  -65.4861 -22.2159 24.359
RightLeg  37.8788 -4.03245 -3.63698
RightFoot  -8.70988 0.183843 -10.524
RightToes  0.00048216 0.542163 -0.142577
Spine  70.1712 -5.49097 6.12807
Spine1  7.75932 1.31934 -10.2179
HEad  -44.2267 7.75195 -17.2292
LeftShoulder1  4.31178 -25.4329 -7.19238
LeftArm  -90.1869 -74.2117 40.8685
LeftForeArm  9.83149 0.193403 -0.849204
LeftHand  -0.25398 0.0180481 5.50724
RightShoulder  1.74696 10.5381 4.58772
RightArm  -85.3491 71.6487 -26.3136
RightForeArm  -30.151 2.50952 1.59342
RightHand  -7.84252 18.5109 -37.206
LeftUpLeg  -71.0348 28.8344 -26.9972
LeftLeg  32.2285 1.99127 1.70903
LeftFoot  -0.612889 -0.933485 9.95388
LeftToes  1.06244e-005 4.65854e-005 -8.18505e-006
